nColumns=19
nRows=45
DataType=double
version=3
OpenSimVersion=4.1
endheader
time	ground_force_calcn_l_vx	ground_force_calcn_l_vy	ground_force_calcn_l_vz	ground_force_calcn_l_px	ground_force_calcn_l_py	ground_force_calcn_l_pz	ground_force_calcn_l_mx	ground_force_calcn_l_my	ground_force_calcn_l_mz	ground_force_calcn_r_vx	ground_force_calcn_r_vy	ground_force_calcn_r_vz	ground_force_calcn_r_px	ground_force_calcn_r_py	ground_force_calcn_r_pz	ground_force_calcn_r_mx	ground_force_calcn_r_my	ground_force_calcn_r_mz
0	0	0	0	0	0.0378373	0	0	0	0	0	0	0	0	0.0344877	0	0	0	0
0.00997947	1.64547	340.414	-47.2047	-0.274268	-2.9878e-17	0.207241	-0.0611204	-12.6445	1.7534	-16.7823	359.1	42.9643	-0.244864	-2.70298e-17	-0.19043	-0.19649	4.2044	0.503032
0.0199589	1.964	341.378	-47.1491	-0.274298	-2.98877e-17	0.207395	-0.0724224	-12.5883	1.73862	-16.3966	359.965	43.3688	-0.245416	-2.70887e-17	-0.190614	-0.193576	4.24971	0.512008
0.0299384	2.22755	342.361	-47.0905	-0.274328	-2.98966e-17	0.207541	-0.0816798	-12.5537	1.72671	-16.061	360.764	43.7386	-0.245991	-2.71499e-17	-0.190801	-0.191664	4.30519	0.521957
0.0399179	2.44899	343.311	-47.0155	-0.274335	-2.99024e-17	0.207667	-0.089368	-12.528	1.71568	-15.7786	361.413	44.0711	-0.24655	-2.72092e-17	-0.190976	-0.190365	4.36037	0.531708
0.0498973	2.60381	344.106	-46.8889	-0.274318	-2.99056e-17	0.207771	-0.0946388	-12.507	1.70424	-15.5442	361.851	44.3561	-0.247043	-2.72609e-17	-0.191142	-0.190052	4.42417	0.542319
0.0598768	2.66103	344.548	-46.6672	-0.274291	-2.99069e-17	0.207866	-0.096524	-12.4979	1.69277	-15.3747	362.057	44.5836	-0.247454	-2.73034e-17	-0.191301	-0.190693	4.49062	0.552974
0.0698563	2.61857	344.423	-46.3425	-0.274306	-2.99126e-17	0.207935	-0.0949193	-12.4848	1.67984	-15.2707	362.006	44.746	-0.247773	-2.73362e-17	-0.191435	-0.191587	4.54175	0.561385
0.0798357	2.50242	343.6	-45.9307	-0.274407	-2.99273e-17	0.207968	-0.0907255	-12.4573	1.66522	-15.2371	361.703	44.8345	-0.247984	-2.73576e-17	-0.191547	-0.192834	4.57757	0.567407
0.0898152	2.32122	342.063	-45.452	-0.274623	-2.99537e-17	0.207989	-0.0842765	-12.4193	1.65022	-15.2933	361.168	44.8554	-0.248113	-2.73704e-17	-0.191667	-0.194866	4.60196	0.571542
0.0997947	2.10235	339.88	-44.9226	-0.274931	-2.9989e-17	0.208039	-0.0765737	-12.3794	1.63621	-15.4135	360.439	44.8123	-0.248159	-2.73745e-17	-0.191797	-0.197321	4.61428	0.573678
0.109774	1.88502	337.172	-44.3832	-0.275318	-3.00315e-17	0.20813	-0.0690059	-12.343	1.62476	-15.5837	359.555	44.7108	-0.248123	-2.737e-17	-0.191946	-0.200015	4.61485	0.573858
0.119754	1.67747	334.122	-43.879	-0.275851	-3.00881e-17	0.208266	-0.0618453	-12.3184	1.61774	-15.8224	358.56	44.5643	-0.248032	-2.73598e-17	-0.192137	-0.203353	4.60829	0.572751
0.129733	1.49342	330.976	-43.4427	-0.27656	-3.0162e-17	0.208463	-0.0555718	-12.316	1.61655	-16.1312	357.451	44.3879	-0.247941	-2.73497e-17	-0.192386	-0.207371	4.59513	0.570619
0.139713	1.34162	327.972	-43.098	-0.277372	-3.02461e-17	0.208725	-0.0504227	-12.3263	1.61977	-16.468	356.226	44.2045	-0.247887	-2.73443e-17	-0.192668	-0.211195	4.56843	0.566902
0.149692	1.20502	325.249	-42.8563	-0.278232	-3.03347e-17	0.209045	-0.0457457	-12.3473	1.62693	-16.8216	354.948	44.0363	-0.247855	-2.73415e-17	-0.192978	-0.214823	4.53294	0.562375
0.159671	1.06181	322.837	-42.7145	-0.279181	-3.0432e-17	0.209424	-0.0407202	-12.3807	1.63809	-17.1992	353.725	43.8804	-0.247836	-2.734e-17	-0.193343	-0.219043	4.50492	0.558845
0.169651	0.937494	320.721	-42.661	-0.280289	-3.05467e-17	0.209858	-0.0362891	-12.4147	1.65135	-17.5978	352.644	43.7503	-0.247851	-2.73423e-17	-0.193754	-0.2233	4.47473	0.555152
0.17963	0.861276	318.891	-42.6805	-0.281574	-3.06809e-17	0.210359	-0.0336223	-12.4488	1.66616	-18.0113	351.781	43.6609	-0.247974	-2.73566e-17	-0.194197	-0.227455	4.44244	0.551369
0.18961	0.835384	317.383	-42.7536	-0.282984	-3.08296e-17	0.210921	-0.0328427	-12.4778	1.68084	-18.4349	351.224	43.6051	-0.248235	-2.73863e-17	-0.194675	-0.231778	4.41588	0.548239
0.199589	0.88367	316.262	-42.8858	-0.284479	-3.09892e-17	0.211536	-0.0348855	-12.4854	1.69304	-18.8202	351.044	43.5809	-0.248608	-2.74281e-17	-0.195193	-0.236129	4.40439	0.546791
0.209569	1.03287	315.563	-43.0836	-0.286028	-3.11563e-17	0.212184	-0.0408274	-12.4736	1.70301	-19.1155	351.237	43.5815	-0.249132	-2.74859e-17	-0.195741	-0.24046	4.4183	0.548223
0.219548	1.26173	315.275	-43.3154	-0.287656	-3.13336e-17	0.212858	-0.0498486	-12.4559	1.71131	-19.3223	351.757	43.6255	-0.249874	-2.75671e-17	-0.196304	-0.244734	4.45531	0.552556
0.229528	1.54389	315.379	-43.5406	-0.289395	-3.15247e-17	0.213546	-0.0609075	-12.442	1.71771	-19.4289	352.551	43.7186	-0.250849	-2.76737e-17	-0.196874	-0.248571	4.5105	0.559332
0.239507	1.89011	315.871	-43.7314	-0.291182	-3.17225e-17	0.214242	-0.0744207	-12.437	1.72187	-19.4144	353.585	43.8672	-0.252008	-2.78001e-17	-0.197445	-0.251451	4.57956	0.56816
0.249487	2.26712	316.719	-43.8708	-0.292926	-3.19173e-17	0.214911	-0.0890472	-12.44	1.72314	-19.2726	354.832	44.0644	-0.253311	-2.79417e-17	-0.198006	-0.253798	4.67272	0.580278
0.259466	2.64614	317.862	-43.9456	-0.294601	-3.21056e-17	0.215534	-0.103738	-12.4613	1.72282	-19.01	356.267	44.2882	-0.254723	-2.80944e-17	-0.198532	-0.255623	4.79063	0.595532
0.269446	3.01209	319.212	-43.949	-0.296235	-3.22902e-17	0.216106	-0.117917	-12.4965	1.72051	-18.6243	357.882	44.5216	-0.256194	-2.82536e-17	-0.198995	-0.255669	4.9129	0.61118
0.279425	3.37489	320.691	-43.8925	-0.29782	-3.24702e-17	0.216636	-0.13204	-12.5468	1.71726	-18.1545	359.666	44.7596	-0.257686	-2.84159e-17	-0.199395	-0.253678	5.02569	0.625437
0.289405	3.73072	322.248	-43.7996	-0.29933	-3.26417e-17	0.217135	-0.14603	-12.6136	1.71443	-17.6304	361.572	44.9683	-0.259197	-2.85806e-17	-0.19973	-0.250317	5.1336	0.63846
0.299384	4.08959	323.822	-43.7034	-0.300749	-3.28028e-17	0.217616	-0.160223	-12.6868	1.71223	-17.0492	363.529	45.1439	-0.260724	-2.87476e-17	-0.200002	-0.245524	5.23516	0.650115
0.309363	4.4611	325.357	-43.6071	-0.302102	-3.29564e-17	0.218076	-0.175008	-12.7637	1.7107	-16.3866	365.471	45.3087	-0.262229	-2.89123e-17	-0.200218	-0.239151	5.33379	0.661249
0.319343	4.83946	326.842	-43.5033	-0.303422	-3.31057e-17	0.218519	-0.190272	-12.8504	1.71041	-15.6498	367.353	45.4987	-0.263677	-2.90705e-17	-0.200402	-0.231679	5.43827	0.673561
0.329322	5.24085	328.304	-43.4029	-0.304725	-3.32525e-17	0.218971	-0.206658	-12.9457	1.71147	-14.8507	369.133	45.7211	-0.265086	-2.92237e-17	-0.20056	-0.223287	5.55007	0.687436
0.339302	5.69888	329.772	-43.3505	-0.305965	-3.33915e-17	0.219445	-0.22547	-13.0471	1.71512	-13.9862	370.791	45.9428	-0.266469	-2.93731e-17	-0.200701	-0.214503	5.68673	0.704612
0.349281	6.23816	331.24	-43.361	-0.307122	-3.35199e-17	0.219959	-0.2479	-13.1633	1.72314	-13.0779	372.339	46.1405	-0.267808	-2.95161e-17	-0.200842	-0.205895	5.862	0.726423
0.359261	6.86709	332.697	-43.4148	-0.308245	-3.36426e-17	0.220532	-0.27466	-13.3067	1.73644	-12.1294	373.837	46.3097	-0.269078	-2.96502e-17	-0.200983	-0.197016	6.07218	0.752201
0.36924	7.62014	334.143	-43.4851	-0.309363	-3.37632e-17	0.221181	-0.307506	-13.4841	1.75481	-11.1474	375.368	46.4626	-0.270294	-2.97779e-17	-0.201114	-0.187154	6.30207	0.780064
0.37922	8.50733	335.576	-43.5748	-0.310472	-3.38816e-17	0.22188	-0.346853	-13.6818	1.77659	-10.1598	376.99	46.591	-0.271464	-2.99001e-17	-0.201232	-0.176569	6.55177	0.809713
0.389199	9.52476	337.001	-43.6876	-0.311515	-3.39916e-17	0.222629	-0.392767	-13.8967	1.80152	-9.21337	378.733	46.6834	-0.272527	-3.00101e-17	-0.201343	-0.165978	6.82284	0.840996
0.399179	10.6561	338.432	-43.8265	-0.312445	-3.40884e-17	0.223435	-0.44474	-14.1247	1.82913	-8.33611	380.599	46.7537	-0.273442	-3.01038e-17	-0.201464	-0.155476	7.09851	0.871999
0.409158	11.8765	339.857	-43.9724	-0.313277	-3.41738e-17	0.224308	-0.501822	-14.3601	1.85798	-7.5474	382.555	46.8292	-0.274243	-3.01857e-17	-0.201594	-0.145143	7.35687	0.900567
0.419138	13.1447	341.241	-44.0868	-0.314063	-3.42547e-17	0.225243	-0.562089	-14.592	1.88523	-6.86975	384.566	46.9389	-0.274974	-3.02608e-17	-0.201728	-0.135568	7.58906	0.926297
0.429117	14.4343	342.539	-44.1707	-0.314832	-3.43343e-17	0.226221	-0.624207	-14.813	1.91015	-6.31695	386.622	47.0915	-0.275646	-3.03307e-17	-0.201871	-0.127127	7.78066	0.947702
0.439097	15.7213	343.74	-44.2314	-0.31554	-3.44081e-17	0.227225	-0.686642	-15.0132	1.93185	-5.87912	388.754	47.2702	-0.276224	-3.03914e-17	-0.202025	-0.120021	7.93631	0.96501
